<svg width="27" height="26" viewBox="0 0 27 26" fill="none" xmlns="http://www.w3.org/2000/svg">
<path fill-rule="evenodd" clip-rule="evenodd" d="M22.4624 24.5206H4.54242C3.12802 24.5206 1.98242 23.375 1.98242 21.9606V11.7206C1.98242 10.3062 3.12802 9.16064 4.54242 9.16064H22.4624C23.8768 9.16064 25.0224 10.3062 25.0224 11.7206V21.9606C25.0224 23.375 23.8768 24.5206 22.4624 24.5206Z" stroke="#1D2939" stroke-width="2" stroke-linecap="round" stroke-linejoin="round"/>
<path fill-rule="evenodd" clip-rule="evenodd" d="M18.6218 13.0005H19.9018C20.6084 13.0005 21.1818 13.5739 21.1818 14.2805V15.5605C21.1818 16.267 20.6084 16.8405 19.9018 16.8405H18.6218C17.9152 16.8405 17.3418 16.267 17.3418 15.5605V14.2805C17.3418 13.5739 17.9152 13.0005 18.6218 13.0005Z" stroke="#1D2939" stroke-width="2" stroke-linecap="round" stroke-linejoin="round"/>
<path d="M5.82227 9.16047V2.76047C5.82227 2.05391 6.39571 1.48047 7.10227 1.48047H19.9023C20.6088 1.48047 21.1823 2.05391 21.1823 2.76047V9.16047" stroke="#1D2939" stroke-width="2" stroke-linecap="round" stroke-linejoin="round"/>
<path d="M9.66211 5.32311H17.3421" stroke="#1D2939" stroke-width="2" stroke-linecap="round" stroke-linejoin="round"/>
<path d="M9.66227 16.8407H5.82227" stroke="#1D2939" stroke-width="2" stroke-linecap="round" stroke-linejoin="round"/>
<path d="M12.2223 20.6805H5.82227" stroke="#1D2939" stroke-width="2" stroke-linecap="round" stroke-linejoin="round"/>
</svg>
