<svg width="21" height="16" viewBox="0 0 21 16" fill="none" xmlns="http://www.w3.org/2000/svg">
<path d="M1.18075 16H0.464844V0H1.18075V16ZM1.89666 15.9886H1.53303V0H1.89666V15.9886ZM2.96484 15.9886H2.61257V0H2.96484V15.9886ZM4.74893 15.9886H4.39666V0H4.74893V15.9886ZM6.53303 15.9886H5.82848V0H6.53303V15.9886ZM7.96484 15.9886H7.61257V0H7.96484V15.9886ZM8.68075 15.9886H8.32848V0H8.68075V15.9886ZM9.39666 15.9886H9.04439V0H9.39666V15.9886ZM11.1808 15.9886H10.4648V0H11.1808V15.9886ZM12.9648 15.9886H12.2489V0H12.9648V15.9886ZM14.3967 15.9886H13.6808V0H14.3967V15.9886ZM15.8285 15.9886H15.1126V0H15.8285V15.9886ZM16.8967 15.9886H16.1808V0H16.8967V15.9886ZM19.0444 15.9886H17.9762V0H19.0444V15.9886ZM19.7603 15.9886H19.3967V0H19.7603V15.9886ZM20.8285 16H20.1126V0H20.8285V16Z" fill="#1D2939"/>
</svg>
