<svg width="16" height="20" viewBox="0 0 16 20" fill="none" xmlns="http://www.w3.org/2000/svg">
<path d="M5.70703 16.3438V16.7088C5.70703 17.9738 6.73303 18.9998 7.99903 18.9998V18.9998C9.26503 18.9998 10.291 17.9738 10.291 16.7078V16.3428" stroke="#101828" stroke-width="1.5" stroke-linecap="round" stroke-linejoin="round"/>
<path d="M9.83397 3.751V2.833C9.83397 1.821 9.01397 1 8.00097 1V1C6.98797 1 6.16797 1.821 6.16797 2.833V3.751" stroke="#101828" stroke-width="1.5" stroke-linecap="round" stroke-linejoin="round"/>
<path fill-rule="evenodd" clip-rule="evenodd" d="M2.563 8.18798V8.18798C2.563 5.68498 4.592 3.65698 7.094 3.65698H8.907C11.41 3.65698 13.438 5.68598 13.438 8.18798V8.18798V10.985C13.438 11.515 13.649 12.024 14.024 12.399L14.665 13.04C15.04 13.415 15.251 13.924 15.251 14.454V14.454C15.251 15.498 14.405 16.344 13.361 16.344H2.64C1.596 16.344 0.75 15.498 0.75 14.454V14.454C0.75 13.924 0.961 13.415 1.336 13.04L1.977 12.399C2.352 12.024 2.563 11.515 2.563 10.985V8.18798Z" stroke="#101828" stroke-width="1.5" stroke-linecap="round" stroke-linejoin="round"/>
</svg>
