<svg width="24" height="24" viewBox="0 0 24 24" fill="none" xmlns="http://www.w3.org/2000/svg">
<path d="M20.9997 20.0035H4.99302C3.88799 20.0035 2.99219 19.1077 2.99219 18.0026V16.0018C2.99219 14.8968 3.88799 14.001 4.99302 14.001H20.9997" stroke="#294122" stroke-width="1.5" stroke-linecap="round" stroke-linejoin="round"/>
<path d="M19.998 17.0022H5.99219" stroke="#294122" stroke-width="1.5" stroke-linecap="round" stroke-linejoin="round"/>
<path fill-rule="evenodd" clip-rule="evenodd" d="M7.2825 9.99908C8.94004 9.99908 10.2838 8.65538 10.2838 6.99783C10.2838 5.34029 8.94004 3.99658 7.2825 3.99658C5.62496 3.99658 4.28125 5.34029 4.28125 6.99783C4.28125 8.65538 5.62496 9.99908 7.2825 9.99908Z" stroke="#294122" stroke-width="1.5" stroke-linecap="round" stroke-linejoin="round"/>
<path fill-rule="evenodd" clip-rule="evenodd" d="M16.7161 9.99933C18.3736 9.99933 19.7173 8.65562 19.7173 6.99808C19.7173 5.34053 18.3736 3.99683 16.7161 3.99683C15.0585 3.99683 13.7148 5.34053 13.7148 6.99808C13.7148 8.65562 15.0585 9.99933 16.7161 9.99933Z" stroke="#294122" stroke-width="1.5" stroke-linecap="round" stroke-linejoin="round"/>
<path d="M10.2812 6.99815C10.6861 6.45822 11.3216 6.14045 11.9965 6.14045C12.6713 6.14045 13.3068 6.45822 13.7117 6.99815" stroke="#294122" stroke-width="1.5" stroke-linecap="round" stroke-linejoin="round"/>
<path d="M2.99219 6.99826H4.27772" stroke="#294122" stroke-width="1.5" stroke-linecap="round" stroke-linejoin="round"/>
<path d="M19.7188 6.99826H21.0043" stroke="#294122" stroke-width="1.5" stroke-linecap="round" stroke-linejoin="round"/>
</svg>
