<svg width="21" height="21" viewBox="0 0 21 21" fill="none" xmlns="http://www.w3.org/2000/svg">
<path d="M15.4648 4.31714C16.3898 4.15014 17.3588 4.05314 18.4208 4.01714C18.9888 3.99814 19.4648 4.44814 19.4648 5.01614V16.8531C19.4648 17.3951 19.0318 17.8431 18.4908 17.8511C15.3988 17.8981 13.0708 18.4681 10.4648 20.0001C7.85884 18.4681 5.53084 17.8981 2.43884 17.8521C1.89784 17.8441 1.46484 17.3951 1.46484 16.8531V5.01614C1.46484 4.45714 1.92384 3.99814 2.48184 4.01614C5.55284 4.11514 7.87084 4.69314 10.4648 6.14614" stroke="#1D2939" stroke-width="1.5" stroke-linecap="round" stroke-linejoin="round"/>
<path fill-rule="evenodd" clip-rule="evenodd" d="M15.4648 14.2381V2.01212C15.4648 1.28312 14.6988 0.774122 14.0478 1.10112C12.2918 1.98112 10.8118 3.77012 10.4648 5.61212V20.0001C10.8608 17.9011 12.7258 15.8711 14.7958 15.1761C15.1978 15.0411 15.4648 14.6621 15.4648 14.2381Z" stroke="#1D2939" stroke-width="1.5" stroke-linecap="round" stroke-linejoin="round"/>
</svg>
