<svg width="24" height="25" viewBox="0 0 24 25" fill="none" xmlns="http://www.w3.org/2000/svg">
<path d="M5.51588 4.47589L3.46902 6.52074L2.47461 5.52933" stroke="#1D2939" stroke-width="1.5" stroke-linecap="round" stroke-linejoin="round"/>
<path d="M5.49734 10.5018L2.49609 13.5001" stroke="#1D2939" stroke-width="1.5" stroke-linecap="round" stroke-linejoin="round"/>
<path d="M2.49609 10.5004L5.4944 13.5016" stroke="#1D2939" stroke-width="1.5" stroke-linecap="round" stroke-linejoin="round"/>
<path d="M5.51588 17.4813L3.46902 19.5261L2.47461 18.5347" stroke="#1D2939" stroke-width="1.5" stroke-linecap="round" stroke-linejoin="round"/>
<path fill-rule="evenodd" clip-rule="evenodd" d="M16 17.6144V5.99848C16 4.61719 17.1198 3.49744 18.501 3.49744V3.49744C19.8823 3.49744 21.0021 4.61719 21.0021 5.99848V17.6144C21.0021 18.336 20.7681 19.038 20.3351 19.6153L19.168 21.1715C19.0105 21.3814 18.7634 21.5049 18.501 21.5049C18.2386 21.5049 17.9915 21.3814 17.8341 21.1715L16.6669 19.6153C16.234 19.038 16 18.336 16 17.6144V17.6144Z" stroke="#1D2939" stroke-width="1.5" stroke-linecap="round" stroke-linejoin="round"/>
<path d="M8.99805 5.49832H11.9993" stroke="#1D2939" stroke-width="1.5" stroke-linecap="round" stroke-linejoin="round"/>
<path d="M8.99805 12.001H11.9993" stroke="#1D2939" stroke-width="1.5" stroke-linecap="round" stroke-linejoin="round"/>
<path d="M8.99805 18.5037H11.9993" stroke="#1D2939" stroke-width="1.5" stroke-linecap="round" stroke-linejoin="round"/>
<path d="M16 8.49954H21.0021" stroke="#1D2939" stroke-width="1.5" stroke-linecap="round" stroke-linejoin="round"/>
</svg>
