<svg width="37" height="38" viewBox="0 0 37 38" fill="none" xmlns="http://www.w3.org/2000/svg">
<rect x="0.75" y="1" width="36" height="36" rx="18" fill="#F2F4F7"/>
<rect x="0.75" y="1" width="36" height="36" rx="18" stroke="#EAECF0" stroke-width="0.5"/>
<path d="M18.9662 9.6958C21.7852 9.6958 24.0519 11.5815 24.0519 13.9053C24.0519 16.2291 21.7662 17.6386 18.9662 17.6386C16.2043 17.5815 14.2615 16.6862 13.1758 14.9339C13.7663 11.6196 15.69 9.86723 18.9662 9.6958ZM18.7757 12.3053C17.1567 12.4767 16.1662 13.2386 15.8043 14.6101C16.2996 15.0481 17.29 15.2767 18.7757 15.3339C20.2614 15.3148 21.1757 14.8767 21.1948 13.8672C21.0995 12.7434 20.0138 12.2672 18.7757 12.3053Z" fill="black"/>
<path d="M12.9487 16.0366C13.7868 18.4176 16.0725 19.7509 18.4343 19.7509C20.3962 19.7509 21.6915 18.9128 22.3772 17.6176L24.5676 18.989C23.8057 20.8556 21.5391 22.2271 18.8534 22.2271C15.5391 22.2271 12.7011 19.9985 12.9487 16.1319C12.9487 16.0938 12.9487 16.0747 12.9487 16.0366Z" fill="#00C252"/>
<path d="M15.4743 28.7652C15.9503 29.3519 16.3931 29.3408 16.7584 29.1748C17.0904 29.0309 17.2676 28.6324 17.2011 28.2007C17.1901 28.2007 17.179 28.2007 17.179 28.2117C16.9687 28.732 16.4263 28.7984 16.0057 28.6877C15.6293 28.5881 15.4411 28.3224 15.3747 27.9461C15.3526 27.8132 15.3415 27.6693 15.3415 27.5365C15.3415 26.972 15.3415 26.4185 15.3415 25.854H16.0057C16.0057 25.9093 16.0167 25.9536 16.0167 26.009C16.0167 26.4628 16.0167 26.9166 16.0167 27.3816C16.0167 27.4812 16.0278 27.5697 16.0389 27.6693C16.0942 28.0346 16.3156 28.1785 16.6809 28.0789C16.9798 28.0014 17.1679 27.7358 17.1901 27.3373C17.2122 26.9166 17.2011 26.4849 17.2122 26.0643C17.2122 25.9979 17.2122 25.9315 17.2122 25.854H17.8653C17.8764 25.8761 17.8764 25.8983 17.8764 25.9315C17.8764 26.7617 17.8985 27.5919 17.8653 28.4221C17.8321 29.4072 16.9908 30.0049 16.0278 29.7725C15.7068 29.695 15.419 29.5732 15.1865 29.3297C15.1201 29.2522 15.1091 29.1969 15.1755 29.1194C15.2862 29.0087 15.3747 28.898 15.4743 28.7652Z" fill="black"/>
<path d="M11.4449 25.8814V26.302C11.2346 26.0031 10.9357 25.8149 10.6037 25.8149C9.98379 25.8149 9.47461 26.4791 9.47461 27.3093C9.47461 28.1284 9.98379 28.8036 10.6037 28.8036C10.9357 28.8036 11.2346 28.6154 11.4449 28.3166V28.8036H12.1201V25.8924H11.4449V25.8814ZM10.8029 28.1837C10.4376 28.1837 10.1388 27.7853 10.1388 27.2982C10.1388 26.8112 10.4376 26.4127 10.8029 26.4127C11.1682 26.4127 11.4671 26.8112 11.4671 27.2982C11.4671 27.7853 11.1682 28.1837 10.8029 28.1837Z" fill="black"/>
<path d="M23.2906 25.8814V26.302C23.0914 26.0031 22.7814 25.8149 22.4494 25.8149C21.8295 25.8149 21.3203 26.4791 21.3203 27.3093C21.3203 28.1284 21.8295 28.8036 22.4494 28.8036C22.7814 28.8036 23.0803 28.6154 23.2906 28.3166V28.8036H23.9658V25.8924H23.2906V25.8814ZM22.6486 28.1837C22.2833 28.1837 21.9845 27.7853 21.9845 27.2982C21.9845 26.8112 22.2833 26.4127 22.6486 26.4127C23.025 26.4127 23.3128 26.8112 23.3128 27.2982C23.3128 27.7853 23.0139 28.1837 22.6486 28.1837Z" fill="black"/>
<path d="M30.3941 25.8814V26.302C30.1949 26.0031 29.885 25.8149 29.5529 25.8149C28.933 25.8149 28.4238 26.4791 28.4238 27.3093C28.4238 28.1284 28.933 28.8036 29.5529 28.8036C29.885 28.8036 30.1838 28.6154 30.3941 28.3166V28.8036H31.0694V25.8924H30.3941V25.8814ZM29.7521 28.1837C29.3868 28.1837 29.088 27.7853 29.088 27.2982C29.088 26.8112 29.3868 26.4127 29.7521 26.4127C30.1174 26.4127 30.4163 26.8112 30.4163 27.2982C30.4163 27.7853 30.1174 28.1837 29.7521 28.1837Z" fill="black"/>
<path d="M24.4727 28.7925H25.1589V25.8149H24.4727V28.7925Z" fill="black"/>
<path d="M25.2482 25.1124C25.2482 24.8799 25.06 24.6807 24.8165 24.6807C24.5729 24.6807 24.3848 24.8688 24.3848 25.1124C24.3848 25.3448 24.5729 25.5441 24.8165 25.5441C25.06 25.5441 25.2482 25.3448 25.2482 25.1124Z" fill="#26B15D"/>
<path d="M19.9247 25.8592C19.6037 25.8592 19.3048 26.0253 19.0945 26.302V25.8149H18.4082V29.8552H19.0945V28.3608C19.3048 28.6376 19.5926 28.8036 19.9247 28.8036C20.5667 28.8036 21.0759 28.1505 21.0759 27.3314C21.0759 26.5234 20.5556 25.8592 19.9247 25.8592ZM19.7254 28.1837C19.4376 28.1837 19.1941 27.9624 19.0945 27.6414V27.0104C19.1941 26.7005 19.4376 26.468 19.7254 26.468C20.1018 26.468 20.4117 26.8444 20.4117 27.3204C20.4117 27.8074 20.1018 28.1837 19.7254 28.1837Z" fill="black"/>
<path d="M14.4771 26.8725L14.9641 26.6179C14.9531 26.3965 14.8092 26.1862 14.621 26.0645C14.4328 25.9427 14.2004 25.8984 13.979 25.8763C13.6137 25.8431 13.2263 25.8652 12.9274 26.0755C12.6285 26.2748 12.4514 26.7065 12.6175 27.0275C12.7614 27.2931 13.0602 27.4149 13.3591 27.4703C13.658 27.5256 13.9568 27.5477 14.2225 27.6806C14.2889 27.7138 14.3553 27.7691 14.3664 27.8355C14.3664 27.913 14.3221 27.9684 14.2668 28.0126C13.9236 28.3004 13.4034 28.2562 13.1156 27.913C13.0381 27.8134 12.9717 27.6916 12.9495 27.5699L12.4072 27.8466C12.2965 27.913 12.7171 28.4222 12.7614 28.4775C13.1599 28.8207 13.7576 28.876 14.2446 28.7211C14.5878 28.6104 14.9088 28.3558 14.9863 27.9905C15.0306 27.7581 14.9641 27.5256 14.8092 27.3485C14.6431 27.1714 14.3996 27.0828 14.1561 27.0275C13.9126 26.9721 13.669 26.9611 13.4366 26.8836C13.337 26.8504 13.2152 26.784 13.2263 26.6733C13.2263 26.5736 13.337 26.5183 13.4255 26.4851C13.6248 26.4187 13.8351 26.3965 14.0343 26.4519C14.2336 26.5183 14.4217 26.6733 14.4771 26.8725Z" fill="black"/>
<path d="M27.5949 26.8725L28.082 26.6179C28.0709 26.3965 27.927 26.1862 27.7388 26.0645C27.5507 25.9427 27.3182 25.8984 27.0968 25.8763C26.7315 25.8431 26.3441 25.8652 26.0452 26.0755C25.7464 26.2748 25.5693 26.7065 25.7353 27.0275C25.8792 27.2931 26.1781 27.4149 26.4769 27.4703C26.7758 27.5256 27.0747 27.5477 27.3403 27.6806C27.4068 27.7138 27.4732 27.7691 27.4842 27.8355C27.4842 27.913 27.44 27.9684 27.3846 28.0126C27.0415 28.3004 26.5212 28.2562 26.2334 27.913C26.1559 27.8134 26.0895 27.6916 26.0674 27.5699L25.5361 27.8466C25.4254 27.913 25.846 28.4222 25.8903 28.4775C26.2888 28.8207 26.8865 28.876 27.3735 28.7211C27.7167 28.6104 28.0377 28.3558 28.1152 27.9905C28.1595 27.7581 28.093 27.5256 27.9381 27.3485C27.772 27.1714 27.5285 27.0828 27.285 27.0275C27.0415 26.9721 26.798 26.9611 26.5655 26.8947C26.4659 26.8614 26.3441 26.795 26.3552 26.6843C26.3552 26.5847 26.4659 26.5294 26.5544 26.4962C26.7537 26.4298 26.964 26.4076 27.1632 26.463C27.3625 26.5183 27.5396 26.6733 27.5949 26.8725Z" fill="black"/>
<path d="M8.90006 26.3353C8.90006 26.3353 8.39088 25.5604 7.29503 25.9478C7.29503 25.9478 6.6973 26.1139 6.43164 27.0547C6.43164 27.0547 6.9851 27.9292 8.3134 27.6525C8.32447 27.6525 9.46459 27.3536 8.90006 26.3353ZM8.18057 27.099C7.95918 27.1986 7.61604 27.1765 7.38359 27.1101C7.37252 27.1101 7.06258 26.9994 7.07365 26.9662C7.29503 26.5566 7.8817 26.1692 8.29126 26.5898C8.33554 26.6231 8.36874 26.6784 8.37981 26.7337C8.41302 26.8998 8.3134 27.0437 8.18057 27.099Z" fill="black"/>
<path d="M6.44176 27.3384C6.44176 27.3384 6.30893 28.3789 7.27194 28.711C8.23496 29.0541 8.98766 28.4342 9.22011 28.0468L8.66666 27.7258C8.66666 27.7258 8.23496 28.6113 7.00628 28.0357C7.00628 28.0357 6.55245 27.7701 6.44176 27.3384Z" fill="#26B15D"/>
</svg>
