<svg width="20" height="20" viewBox="0 0 20 20" fill="none" xmlns="http://www.w3.org/2000/svg">
<path d="M10.9985 19.9502C13.5075 19.6965 15.828 18.5041 17.4952 16.612C19.1623 14.7199 20.0531 12.2678 19.989 9.74681C19.9249 7.22582 18.9107 4.82213 17.1495 3.0172C15.3883 1.21228 13.0102 0.139396 10.4916 0.013463C7.97294 -0.11247 5.49969 0.717844 3.56726 2.33809C1.63483 3.95834 0.38591 6.24887 0.0706612 8.75089C-0.244588 11.2529 0.397115 13.7817 1.86723 15.8306C3.33735 17.8796 5.52733 19.2975 7.9985 19.8002V13.0002H5.4985V10.0002H7.9985V7.80023C7.9985 5.30023 9.4985 3.90023 11.7785 3.90023C12.8685 3.90023 13.9985 4.10023 13.9985 4.10023V6.56023H12.7485C11.5085 6.56023 10.9985 7.33023 10.9985 8.12023V10.0002H13.9985L13.4485 13.0002H10.9985V19.9502Z" fill="#344054"/>
</svg>
