<svg width="25" height="25" viewBox="0 0 25 25" fill="none" xmlns="http://www.w3.org/2000/svg">
<path d="M22.1367 6.87891H16.1367" stroke="#1D2939" stroke-width="1.5" stroke-miterlimit="10" stroke-linecap="round" stroke-linejoin="round"/>
<path d="M6.13672 6.87891H2.13672" stroke="#1D2939" stroke-width="1.5" stroke-miterlimit="10" stroke-linecap="round" stroke-linejoin="round"/>
<path d="M10.1367 10.3789C12.0697 10.3789 13.6367 8.8119 13.6367 6.87891C13.6367 4.94591 12.0697 3.37891 10.1367 3.37891C8.20372 3.37891 6.63672 4.94591 6.63672 6.87891C6.63672 8.8119 8.20372 10.3789 10.1367 10.3789Z" stroke="#1D2939" stroke-width="1.5" stroke-miterlimit="10" stroke-linecap="round" stroke-linejoin="round"/>
<path d="M22.1367 17.8789H18.1367" stroke="#1D2939" stroke-width="1.5" stroke-miterlimit="10" stroke-linecap="round" stroke-linejoin="round"/>
<path d="M8.13672 17.8789H2.13672" stroke="#1D2939" stroke-width="1.5" stroke-miterlimit="10" stroke-linecap="round" stroke-linejoin="round"/>
<path d="M14.1367 21.3789C16.0697 21.3789 17.6367 19.8119 17.6367 17.8789C17.6367 15.9459 16.0697 14.3789 14.1367 14.3789C12.2037 14.3789 10.6367 15.9459 10.6367 17.8789C10.6367 19.8119 12.2037 21.3789 14.1367 21.3789Z" stroke="#1D2939" stroke-width="1.5" stroke-miterlimit="10" stroke-linecap="round" stroke-linejoin="round"/>
</svg>
