<svg width="16" height="18" viewBox="0 0 16 18" fill="none" xmlns="http://www.w3.org/2000/svg">
<path d="M15.0553 7.89075C14.9863 7.70611 14.8097 7.58333 14.6123 7.58333H8.91025L12.1993 1.1885C12.3027 0.987333 12.2493 0.741306 12.0713 0.601528C11.9854 0.533528 11.8819 0.5 11.779 0.5C11.669 0.5 11.5589 0.538722 11.4706 0.61475L8.00123 3.611L1.08175 9.58697C0.93253 9.71589 0.878697 9.92414 0.947642 10.1088C1.01659 10.2934 1.19272 10.4167 1.39011 10.4167H7.0922L3.80317 16.8115C3.69975 17.0127 3.75311 17.2587 3.93114 17.3985C4.01709 17.4665 4.1205 17.5 4.22345 17.5C4.33347 17.5 4.4435 17.4613 4.53181 17.3853L8.00123 14.389L14.9207 8.41303C15.0704 8.28411 15.1238 8.07586 15.0553 7.89075Z" fill="#FFAC33"/>
</svg>
