<svg width="22" height="22" viewBox="0 0 22 22" fill="none" xmlns="http://www.w3.org/2000/svg">
<path fill-rule="evenodd" clip-rule="evenodd" d="M16 17.9992H19C20.105 17.9992 21 17.1042 21 15.9992V2.99918C21 1.89418 20.105 0.999176 19 0.999176H3C1.895 0.999176 1 1.89418 1 2.99918V15.9992C1 17.1042 1.895 17.9992 3 17.9992H12" fill="#294122" stroke="#294122" stroke-width="1.5" stroke-linecap="round" stroke-linejoin="round"/>
<path fill-rule="evenodd" clip-rule="evenodd" d="M16 16.2218V21.0008L14 20.0008L12 21.0008V16.2218" fill="#294122"/>
<path d="M16 16.2218V21.0008L14 20.0008L12 21.0008V16.2218" stroke="#5B904B" stroke-linecap="round" stroke-linejoin="round"/>
<path d="M8 4.49918H14" stroke="#F0F6EE" stroke-width="1.5" stroke-linecap="round" stroke-linejoin="round"/>
<path d="M17 7.99918H5" stroke="#F0F6EE" stroke-width="1.5" stroke-linecap="round" stroke-linejoin="round"/>
<path d="M5 13.4992H8" stroke="#F0F6EE" stroke-width="1.5" stroke-linecap="round" stroke-linejoin="round"/>
<path fill-rule="evenodd" clip-rule="evenodd" d="M16.1213 11.8779C17.2929 13.0495 17.2929 14.949 16.1213 16.1205C14.9497 17.2921 13.0502 17.2921 11.8787 16.1205C10.7071 14.949 10.7071 13.0495 11.8787 11.8779C13.0502 10.7063 14.9497 10.7063 16.1213 11.8779" fill="#294122"/>
<path d="M16.1213 11.8779C17.2929 13.0495 17.2929 14.949 16.1213 16.1205C14.9497 17.2921 13.0502 17.2921 11.8787 16.1205C10.7071 14.949 10.7071 13.0495 11.8787 11.8779C13.0502 10.7063 14.9497 10.7063 16.1213 11.8779" stroke="#5B904B" stroke-width="1.2" stroke-linecap="round" stroke-linejoin="round"/>
</svg>
