<svg width="18" height="17" viewBox="0 0 18 17" fill="none" xmlns="http://www.w3.org/2000/svg">
<path fill-rule="evenodd" clip-rule="evenodd" d="M8.92891 12.3559C7.2382 10.6644 4.68964 10.3534 2.68297 11.423C2.11357 11.7265 1.42578 11.3522 1.42578 10.7069V3.12708C1.42578 2.59686 1.67088 2.08664 2.10273 1.77901C4.17443 0.301733 7.0698 0.492646 8.92891 2.35175C10.788 0.492646 13.6834 0.301733 15.7551 1.77901C16.1869 2.08664 16.432 2.59686 16.432 3.12708V10.7069C16.432 11.3522 15.7442 11.7273 15.1748 11.423C13.1682 10.3534 10.6196 10.6644 8.92891 12.3559Z" stroke="#1D2939" stroke-width="1.5" stroke-linecap="round" stroke-linejoin="round"/>
<path d="M2.68359 14.871C4.69026 13.8014 7.23882 14.1124 8.92953 15.8039C10.6202 14.1124 13.1688 13.8014 15.1755 14.871" stroke="#1D2939" stroke-width="1.5" stroke-linecap="round" stroke-linejoin="round"/>
<path d="M8.92856 12.3557V2.35156" stroke="#1D2939" stroke-width="1.5" stroke-linecap="round" stroke-linejoin="round"/>
</svg>
