<svg width="24" height="25" viewBox="0 0 24 25" fill="none" xmlns="http://www.w3.org/2000/svg">
<path d="M9.7791 16.4183L9.16284 17.0346C8.83596 17.3619 8.39238 17.5457 7.92983 17.5457C7.46728 17.5457 7.0237 17.3619 6.69682 17.0346L5.4633 15.7991C5.13604 15.4722 4.95215 15.0286 4.95215 14.5661C4.95215 14.1035 5.13604 13.6599 5.4633 13.3331L6.07956 12.7168" stroke="#1D2939" stroke-width="1.5" stroke-linecap="round" stroke-linejoin="round"/>
<path fill-rule="evenodd" clip-rule="evenodd" d="M18.4929 6.63022L15.8669 4.00513C15.2178 3.35532 14.176 3.32032 13.4849 3.92509L6.24985 10.2567C5.88636 10.5745 5.6709 11.0288 5.65478 11.5113C5.63867 11.9938 5.82334 12.4615 6.16481 12.8028L9.69929 16.3323C10.0404 16.6735 10.5078 16.8582 10.99 16.8422C11.4723 16.8263 11.9264 16.6113 12.2443 16.2482L18.576 9.01221C19.179 8.3199 19.1427 7.27886 18.4929 6.63022Z" stroke="#1D2939" stroke-width="1.5" stroke-linecap="round" stroke-linejoin="round"/>
<path d="M2.99658 21.5012H21.0041" stroke="#1D2939" stroke-width="1.5" stroke-linecap="round" stroke-linejoin="round"/>
<path d="M7.48245 17.4817L6.42501 18.5001H4.2311L2.99658 17.0345L5.01742 15.0127" stroke="#1D2939" stroke-width="1.5" stroke-linecap="round" stroke-linejoin="round"/>
</svg>
