<svg width="24" height="25" viewBox="0 0 24 25" fill="none" xmlns="http://www.w3.org/2000/svg">
<path d="M20.7711 10.4973C21.6758 14.4216 19.872 18.4705 16.3494 20.4224C12.8269 22.3743 8.43748 21.757 5.58983 18.9094C2.74218 16.0617 2.12494 11.6723 4.07681 8.14977C6.02867 4.6272 10.0776 2.82336 14.0019 3.72805" stroke="#1D2939" stroke-width="1.5" stroke-linecap="round" stroke-linejoin="round"/>
<path d="M11.3438 15.9976H13.6531" stroke="#1D2939" stroke-width="1.5" stroke-linecap="round" stroke-linejoin="round"/>
<path d="M12.5055 15.9976V11.7476H11.3555" stroke="#1D2939" stroke-width="1.5" stroke-linecap="round" stroke-linejoin="round"/>
<path d="M12.4453 8.74487C12.4453 8.88294 12.3334 8.99487 12.1953 8.99487C12.0572 8.99487 11.9453 8.88294 11.9453 8.74487C11.9453 8.6068 12.0572 8.49487 12.1953 8.49487" stroke="#1D2939" stroke-width="1.5" stroke-linecap="round" stroke-linejoin="round"/>
<path d="M12.1953 8.49487C12.3334 8.49487 12.4453 8.6068 12.4453 8.74487" stroke="#1D2939" stroke-width="1.5" stroke-linecap="round" stroke-linejoin="round"/>
<circle cx="19" cy="5.49756" r="2" stroke="#1D2939" stroke-width="1.5" stroke-linecap="round" stroke-linejoin="round"/>
</svg>
