<svg width="20" height="20" viewBox="0 0 20 20" fill="none" xmlns="http://www.w3.org/2000/svg">
<path fill-rule="evenodd" clip-rule="evenodd" d="M5.96 0H14.04C14.8227 0 15.5977 0.15416 16.3208 0.453678C17.0439 0.753196 17.7009 1.19221 18.2544 1.74564C18.8078 2.29908 19.2468 2.95611 19.5463 3.67921C19.8458 4.40231 20 5.17732 20 5.96V14.04C20 14.8227 19.8458 15.5977 19.5463 16.3208C19.2468 17.0439 18.8078 17.7009 18.2544 18.2544C17.7009 18.8078 17.0439 19.2468 16.3208 19.5463C15.5977 19.8458 14.8227 20 14.04 20H5.96C4.37931 20 2.86336 19.3721 1.74564 18.2544C0.627927 17.1366 0 15.6207 0 14.04V5.96C0 4.37931 0.627927 2.86336 1.74564 1.74564C2.86336 0.627927 4.37931 0 5.96 0ZM14.04 17.99C14.5596 17.9913 15.0743 17.8901 15.5547 17.6922C16.0351 17.4943 16.4717 17.2035 16.8395 16.8366C17.2074 16.4697 17.4992 16.0338 17.6984 15.5539C17.8975 15.074 18 14.5596 18 14.04V5.96C18.0013 5.4396 17.8998 4.92406 17.7013 4.44301C17.5027 3.96197 17.2111 3.5249 16.8431 3.15692C16.4751 2.78893 16.038 2.49729 15.557 2.29875C15.0759 2.10021 14.5604 1.99868 14.04 2H5.96C5.4396 1.99868 4.92406 2.10021 4.44301 2.29875C3.96197 2.49729 3.5249 2.78893 3.15692 3.15692C2.78893 3.5249 2.49729 3.96197 2.29875 4.44301C2.10021 4.92406 1.99868 5.4396 2 5.96V14.04C1.99868 14.5604 2.10021 15.0759 2.29875 15.557C2.49729 16.038 2.78893 16.4751 3.15692 16.8431C3.5249 17.2111 3.96197 17.5027 4.44301 17.7013C4.92406 17.8998 5.4396 18.0013 5.96 18H14.04V17.99ZM15.18 6.11C15.3428 6.11 15.5041 6.07793 15.6545 6.01561C15.805 5.95329 15.9417 5.86196 16.0568 5.74681C16.172 5.63167 16.2633 5.49497 16.3256 5.34453C16.3879 5.19408 16.42 5.03284 16.42 4.87C16.42 4.70716 16.3879 4.54592 16.3256 4.39547C16.2633 4.24503 16.172 4.10833 16.0568 3.99319C15.9417 3.87804 15.805 3.78671 15.6545 3.72439C15.5041 3.66207 15.3428 3.63 15.18 3.63C14.8511 3.63 14.5357 3.76064 14.3032 3.99319C14.0706 4.22573 13.94 4.54113 13.94 4.87C13.94 5.19887 14.0706 5.51427 14.3032 5.74681C14.5357 5.97936 14.8511 6.11 15.18 6.11ZM13 10C13 10.394 12.9224 10.7841 12.7716 11.1481C12.6209 11.512 12.3999 11.8427 12.1213 12.1213C11.8427 12.3999 11.512 12.6209 11.1481 12.7716C10.7841 12.9224 10.394 13 10 13C9.60603 13 9.21593 12.9224 8.85195 12.7716C8.48797 12.6209 8.15726 12.3999 7.87868 12.1213C7.6001 11.8427 7.37913 11.512 7.22836 11.1481C7.0776 10.7841 7 10.394 7 10C7 9.20435 7.31607 8.44129 7.87868 7.87868C8.44129 7.31607 9.20435 7 10 7C10.7956 7 11.5587 7.31607 12.1213 7.87868C12.6839 8.44129 13 9.20435 13 10ZM15 10C15 11.3261 14.4732 12.5979 13.5355 13.5355C12.5979 14.4732 11.3261 15 10 15C8.67392 15 7.40215 14.4732 6.46447 13.5355C5.52678 12.5979 5 11.3261 5 10C5 8.67392 5.52678 7.40215 6.46447 6.46447C7.40215 5.52678 8.67392 5 10 5C11.3261 5 12.5979 5.52678 13.5355 6.46447C14.4732 7.40215 15 8.67392 15 10Z" fill="#344054"/>
</svg>
