<svg width="24" height="25" viewBox="0 0 24 25" fill="none" xmlns="http://www.w3.org/2000/svg">
<path d="M9.99609 13.5004L10.9495 14.4538C11.7 15.2043 12.7178 15.6259 13.7792 15.6259C14.8405 15.6259 15.8584 15.2043 16.6088 14.4538L19.6411 11.4215C21.454 9.60839 21.454 6.66893 19.6411 4.85579V4.85579C17.828 3.04286 14.8885 3.04286 13.0754 4.85579L12.188 5.74416" stroke="#1D2939" stroke-width="1.5" stroke-linecap="round" stroke-linejoin="round"/>
<path d="M13.9969 10.4996L13.0435 9.54616C12.293 8.79565 11.2752 8.37402 10.2138 8.37402C9.15249 8.37402 8.13462 8.79565 7.38415 9.54616L4.35189 12.5784C2.53895 14.3916 2.53895 17.331 4.35189 19.1442V19.1442C6.16503 20.9571 9.10449 20.9571 10.9176 19.1442L11.805 18.2558" stroke="#1D2939" stroke-width="1.5" stroke-linecap="round" stroke-linejoin="round"/>
</svg>
