<svg width="22" height="21" viewBox="0 0 22 21" fill="none" xmlns="http://www.w3.org/2000/svg">
<path fill-rule="evenodd" clip-rule="evenodd" d="M18.5 19.4976H3.5C2.395 19.4976 1.5 18.6026 1.5 17.4976V3.49756C1.5 2.39256 2.395 1.49756 3.5 1.49756H18.5C19.605 1.49756 20.5 2.39256 20.5 3.49756V17.4976C20.5 18.6026 19.605 19.4976 18.5 19.4976Z" stroke="#1D2939" stroke-width="1.5" stroke-linecap="round" stroke-linejoin="round"/>
<path d="M1.5 6.49756H20.5" stroke="#1D2939" stroke-width="1.5" stroke-linecap="round" stroke-linejoin="round"/>
<path d="M4.50391 3.98768C4.50091 3.98768 4.49891 3.98968 4.49891 3.99268C4.49891 3.99568 4.50091 3.99768 4.50391 3.99768C4.50691 3.99768 4.50891 3.99568 4.50891 3.99268C4.50891 3.98968 4.50691 3.98768 4.50391 3.98768" stroke="#1D2939" stroke-width="1.5" stroke-linecap="round" stroke-linejoin="round"/>
<path d="M7.04688 3.98768C7.04387 3.98768 7.04188 3.98968 7.04188 3.99268C7.04188 3.99568 7.04387 3.99768 7.04688 3.99768C7.04988 3.99768 7.05187 3.99568 7.05187 3.99268C7.05187 3.98968 7.04988 3.98768 7.04688 3.98768" stroke="#1D2939" stroke-width="1.5" stroke-linecap="round" stroke-linejoin="round"/>
<path d="M9.58984 3.98768C9.58684 3.98768 9.58484 3.98968 9.58484 3.99268C9.58484 3.99568 9.58684 3.99768 9.58984 3.99768C9.59284 3.99768 9.59484 3.99568 9.59484 3.99268C9.59484 3.98968 9.59184 3.98768 9.58984 3.98768" stroke="#1D2939" stroke-width="1.5" stroke-linecap="round" stroke-linejoin="round"/>
</svg>
