<svg width="27" height="26" viewBox="0 0 27 26" fill="none" xmlns="http://www.w3.org/2000/svg">
<path fill-rule="evenodd" clip-rule="evenodd" d="M18.8338 10.0425H22.8355C24.3088 10.0425 25.5032 11.2369 25.5032 12.7103V22.0475C25.5032 23.5209 24.3088 24.7153 22.8355 24.7153H18.8338C17.3604 24.7153 16.166 23.5209 16.166 22.0475V12.7103C16.166 11.2369 17.3604 10.0425 18.8338 10.0425Z" stroke="#1D2939" stroke-width="2" stroke-linecap="round" stroke-linejoin="round"/>
<path d="M19.8359 21.7138H21.8368" stroke="#1D2939" stroke-width="2" stroke-linecap="round" stroke-linejoin="round"/>
<path d="M22.771 6.04083V3.64783C22.771 3.02072 22.5218 2.41931 22.0782 1.97601C21.6347 1.5327 21.0331 1.28383 20.406 1.28418H3.85779C3.23091 1.28418 2.62971 1.53321 2.18644 1.97648C1.74317 2.41975 1.49414 3.02095 1.49414 3.64783V19.6838C1.49414 20.9893 2.55238 22.0475 3.85779 22.0475H12.1653" stroke="#1D2939" stroke-width="2" stroke-linecap="round" stroke-linejoin="round"/>
<path d="M15.6783 1.37222V4.859C15.6783 5.51171 15.1492 6.04083 14.4965 6.04083H9.76386C9.11115 6.04083 8.58203 5.51171 8.58203 4.859V1.28418" stroke="#1D2939" stroke-width="2" stroke-linecap="round" stroke-linejoin="round"/>
<path d="M5.49609 18.0459H8.16387" stroke="#1D2939" stroke-width="2" stroke-linecap="round" stroke-linejoin="round"/>
</svg>
