<svg width="24" height="17" viewBox="0 0 24 17" fill="none" xmlns="http://www.w3.org/2000/svg">
<path fill-rule="evenodd" clip-rule="evenodd" d="M22.4473 4.26881L20.051 1.72581C19.6976 1.35181 19.2189 1.14081 18.7185 1.14081H11.7888C10.7475 1.14081 10.749 1.10034 10.749 2.20534C10.749 3.31034 10.7491 14.7493 10.7491 14.7493C10.7491 15.8543 10.7465 15.8548 11.7878 15.8548H21.1149C22.1562 15.8548 22.9996 14.9598 22.9996 13.8548V5.68381C22.9996 5.15281 22.8007 4.64481 22.4473 4.26881Z" stroke="#1D2939" stroke-width="1.5" stroke-linecap="round" stroke-linejoin="round"/>
<path d="M8.77203 1.39941H3.71346C2.21427 1.39941 1 2.26295 1 3.3291V13.6664C1 14.7326 2.21427 15.5961 3.71346 15.5961H8.73144" stroke="#1D2939" stroke-width="1.5" stroke-linecap="round" stroke-linejoin="round" stroke-dasharray="3 3"/>
<path d="M23 6.14062H19C18.448 6.14062 18 5.69262 18 5.14062V1.14062" stroke="#1D2939" stroke-width="1.5" stroke-linecap="round" stroke-linejoin="round"/>
</svg>
