<svg width="25" height="25" viewBox="0 0 25 25" fill="none" xmlns="http://www.w3.org/2000/svg">
<path fill-rule="evenodd" clip-rule="evenodd" d="M3.36775 12.9022C3.21075 12.6511 3.21075 12.3464 3.36775 12.0952C5.25975 9.07499 8.75475 6.45703 12.2498 6.45703C15.7448 6.45703 19.2398 9.07499 21.1318 12.0961C21.2888 12.3472 21.2888 12.6519 21.1318 12.9031C19.2398 15.9233 15.7448 18.5413 12.2498 18.5413C8.75475 18.5413 5.25975 15.9233 3.36775 12.9022Z" stroke="#1F2937" stroke-width="1.5" stroke-linecap="round" stroke-linejoin="round"/>
<path d="M14.3713 10.3787C15.5429 11.5502 15.5429 13.4497 14.3713 14.6213C13.1997 15.7929 11.3002 15.7929 10.1287 14.6213C8.95711 13.4497 8.95711 11.5502 10.1287 10.3787C11.3002 9.20711 13.1997 9.20711 14.3713 10.3787" stroke="#1F2937" stroke-width="1.4286" stroke-linecap="round" stroke-linejoin="round"/>
</svg>
