<svg width="21" height="20" viewBox="0 0 21 20" fill="none" xmlns="http://www.w3.org/2000/svg">
<path d="M4.96484 9H8.96484" stroke="#1D2939" stroke-width="1.5" stroke-linecap="round" stroke-linejoin="round"/>
<path d="M5.46484 1V4" stroke="#1D2939" stroke-width="1.5" stroke-linecap="round" stroke-linejoin="round"/>
<path d="M14.4648 1V4" stroke="#1D2939" stroke-width="1.5" stroke-linecap="round" stroke-linejoin="round"/>
<path d="M7.96484 19H3.96484C2.30799 19 0.964844 17.6569 0.964844 16V5.5C0.964844 3.84315 2.30799 2.5 3.96484 2.5H15.9648C17.6217 2.5 18.9648 3.84315 18.9648 5.5V8" stroke="#1D2939" stroke-width="1.5" stroke-linecap="round" stroke-linejoin="round"/>
<path fill-rule="evenodd" clip-rule="evenodd" d="M11.9648 12.4927C11.9648 13.6389 11.9648 16.4084 11.9648 17.5496C11.9679 17.8242 12.1907 18.0455 12.4653 18.0466C13.6976 18.0338 14.9093 18.3639 15.9648 18.9999C17.0204 18.3639 18.232 18.0338 19.4643 18.0466C19.7388 18.0438 19.9609 17.8226 19.9648 17.5481V12.5016C19.9652 12.3666 19.911 12.2373 19.8145 12.1429C19.718 12.0485 19.5875 11.9971 19.4526 12.0004C18.2284 12.0116 17.0274 12.3368 15.9648 12.9449C14.9012 12.3362 13.6989 12.011 12.4734 12.0003C12.34 11.9957 12.2104 12.0455 12.1145 12.1384C12.0186 12.2313 11.9646 12.3592 11.9648 12.4927V12.4927Z" stroke="#1D2939" stroke-width="1.5" stroke-linecap="round" stroke-linejoin="round"/>
<path d="M15.9648 12.9414V18.9993" stroke="#1D2939" stroke-width="1.5" stroke-linecap="round" stroke-linejoin="round"/>
<path d="M4.96484 13H5.96484" stroke="#1D2939" stroke-width="1.5" stroke-linecap="round" stroke-linejoin="round"/>
</svg>
