<svg width="24" height="24" viewBox="0 0 24 24" fill="none" xmlns="http://www.w3.org/2000/svg">
    <path d="M15 9h2M7 17h2M12 17h5M19 4a2 2 0 0 1 2 2v13a2 2 0 0 1-2 2H5a2 2 0 0 1-2-2V6a2 2 0 0 1 2-2M7 13h2M12 13h5" stroke="#1D2939" stroke-width="1.5" stroke-linecap="round" stroke-linejoin="round"/>
    <path clip-rule="evenodd" d="M10 3H8a1 1 0 0 0-1 1v5l2-1 2 1V4a1 1 0 0 0-1-1z" stroke="#1D2939" stroke-width="1.5" stroke-linecap="round" stroke-linejoin="round"/>
    <path d="M5 4h2M11 4h8" stroke="#1D2939" stroke-width="1.5" stroke-linecap="round" stroke-linejoin="round"/>
</svg>
