<svg width="20" height="19" viewBox="0 0 20 19" fill="none" xmlns="http://www.w3.org/2000/svg">
<path d="M1.84347 1.68308C1.73628 1.68308 1.64939 1.76997 1.64939 1.87716C1.64939 1.98435 1.73628 2.07124 1.84347 2.07124C1.95066 2.07124 2.03755 1.98435 2.03755 1.87716C2.03755 1.76997 1.95066 1.68308 1.84347 1.68308" stroke="#1D2939" stroke-width="1.5" stroke-linecap="round" stroke-linejoin="round"/>
<path d="M4.95654 1.87716H18.6562" stroke="#1D2939" stroke-width="1.5" stroke-linecap="round" stroke-linejoin="round"/>
<path d="M1.84347 5.68479C1.73628 5.68479 1.64939 5.77168 1.64939 5.87887C1.64939 5.98606 1.73628 6.07295 1.84347 6.07295C1.95066 6.07295 2.03755 5.98606 2.03755 5.87887C2.03755 5.77168 1.95066 5.68479 1.84347 5.68479" stroke="#1D2939" stroke-width="1.5" stroke-linecap="round" stroke-linejoin="round"/>
<path d="M4.95654 5.87887H18.6562" stroke="#1D2939" stroke-width="1.5" stroke-linecap="round" stroke-linejoin="round"/>
<path d="M1.84347 9.6865C1.73628 9.6865 1.64939 9.77339 1.64939 9.88058C1.64939 9.98777 1.73628 10.0747 1.84347 10.0747C1.95066 10.0747 2.03755 9.98777 2.03755 9.88058C2.03755 9.82911 2.0171 9.77974 1.98071 9.74334C1.94431 9.70695 1.89494 9.6865 1.84347 9.6865" stroke="#1D2939" stroke-width="1.5" stroke-linecap="round" stroke-linejoin="round"/>
<path d="M4.95654 9.88058H7.0034" stroke="#1D2939" stroke-width="1.5" stroke-linecap="round" stroke-linejoin="round"/>
<path d="M16.1447 10.4281C17.5206 11.8043 17.5205 14.0353 16.1444 15.4114C14.7682 16.7874 12.5372 16.7874 11.1611 15.4114C9.78496 14.0353 9.78483 11.8043 11.1608 10.4281C11.8217 9.76709 12.718 9.39575 13.6527 9.39575C14.5874 9.39575 15.4838 9.76709 16.1447 10.4281" stroke="#1D2939" stroke-width="1.5" stroke-linecap="round" stroke-linejoin="round"/>
<path d="M18.3523 17.6179L16.144 15.4097" stroke="#1D2939" stroke-width="1.5" stroke-linecap="round" stroke-linejoin="round"/>
</svg>
