<svg width="29" height="28" viewBox="0 0 29 28" fill="none" xmlns="http://www.w3.org/2000/svg">
<path d="M12.401 2.66748H5.73438C3.52524 2.66748 1.73438 4.45834 1.73438 6.66748V18.6675C1.73438 20.8766 3.52524 22.6675 5.73438 22.6675H8.41038V25.9247C8.41038 26.2097 8.57376 26.4695 8.83065 26.593C9.08754 26.7164 9.39246 26.6817 9.61503 26.5037L14.4104 22.6675H21.7344C23.9435 22.6675 25.7344 20.8766 25.7344 18.6675V16.0008" stroke="#1D2939" stroke-width="2" stroke-linecap="round" stroke-linejoin="round"/>
<path fill-rule="evenodd" clip-rule="evenodd" d="M20.5385 2.07735C20.7631 1.62217 21.2267 1.33398 21.7342 1.33398C22.2418 1.33398 22.7054 1.62217 22.9299 2.07735L23.6083 3.45258C23.8025 3.84618 24.1779 4.11902 24.6123 4.18214L26.1298 4.4027C26.6319 4.47573 27.049 4.82742 27.2059 5.30997C27.3627 5.79252 27.2321 6.32227 26.8689 6.67658L25.7704 7.74807C25.4563 8.05437 25.3131 8.49556 25.3872 8.92792L25.6464 10.439C25.7322 10.9391 25.5266 11.4446 25.1161 11.7429C24.7056 12.0412 24.1613 12.0806 23.7121 11.8446L22.3545 11.1311C21.9662 10.9269 21.5023 10.9269 21.114 11.1311L19.7564 11.8446C19.3071 12.0806 18.7629 12.0412 18.3524 11.7429C17.9418 11.4446 17.7362 10.9391 17.822 10.439L18.0812 8.92792C18.1554 8.49556 18.0121 8.05437 17.6981 7.74807L16.5996 6.67658C16.2364 6.32226 16.1058 5.79251 16.2626 5.30997C16.4195 4.82743 16.8366 4.47575 17.3387 4.40272L18.8562 4.18216C19.2906 4.11904 19.666 3.84621 19.8602 3.4526L20.5385 2.07735Z" stroke="#1D2939" stroke-width="2" stroke-linecap="round" stroke-linejoin="round"/>
<path d="M12.4017 10.6672H7.06836" stroke="#1D2939" stroke-width="2" stroke-linecap="round" stroke-linejoin="round"/>
<path d="M7.06836 16.0007H17.735" stroke="#1D2939" stroke-width="2" stroke-linecap="round" stroke-linejoin="round"/>
</svg>
