<svg width="21" height="26" viewBox="0 0 21 26" fill="none" xmlns="http://www.w3.org/2000/svg">
<rect x="1.16211" y="10.3325" width="18.6744" height="14.6728" rx="3" stroke="#1D2939" stroke-width="2" stroke-linecap="round" stroke-linejoin="round"/>
<path d="M5.16406 10.3323V6.33067V6.33067C5.16406 3.38393 7.55287 0.995117 10.4996 0.995117V0.995117C13.4464 0.995117 15.8352 3.38393 15.8352 6.33067V6.33067V10.3323" stroke="#1D2939" stroke-width="2" stroke-linecap="round" stroke-linejoin="round"/>
<path d="M6.54418 16.9547C6.56326 16.9738 6.56896 17.0025 6.55864 17.0274C6.54832 17.0523 6.524 17.0686 6.49702 17.0686C6.47005 17.0686 6.44573 17.0523 6.4354 17.0274C6.42508 17.0025 6.43079 16.9738 6.44986 16.9547V16.9547C6.4759 16.9287 6.51808 16.9287 6.54412 16.9547" stroke="#1D2939" stroke-width="2" stroke-linecap="round" stroke-linejoin="round"/>
<path d="M10.5461 16.9547C10.5652 16.9738 10.5709 17.0025 10.5606 17.0274C10.5503 17.0523 10.526 17.0686 10.499 17.0686C10.472 17.0686 10.4477 17.0523 10.4374 17.0274C10.427 17.0025 10.4327 16.9738 10.4518 16.9547V16.9547C10.4779 16.9287 10.52 16.9287 10.5461 16.9547" stroke="#1D2939" stroke-width="2" stroke-linecap="round" stroke-linejoin="round"/>
<path d="M14.5019 19.6694H13.168" stroke="#1D2939" stroke-width="2" stroke-linecap="round" stroke-linejoin="round"/>
</svg>
