<svg width="20" height="20" viewBox="0 0 20 20" fill="none" xmlns="http://www.w3.org/2000/svg">
    <g clip-path="url(#z2tf055kda)">
        <path d="M9.234 1.85a.833.833 0 0 1 1.538 0l1.68 4.04c.12.288.392.485.703.51l4.36.35a.833.833 0 0 1 .476 1.463L14.67 11.06a.833.833 0 0 0-.269.826l1.015 4.255a.833.833 0 0 1-1.244.905l-3.734-2.28a.833.833 0 0 0-.868 0l-3.733 2.28a.833.833 0 0 1-1.245-.905l1.015-4.255a.833.833 0 0 0-.269-.826L2.015 8.213A.833.833 0 0 1 2.49 6.75l4.361-.35a.833.833 0 0 0 .703-.51l1.68-4.04z" fill="#FDB022"/>
    </g>
    <defs>
        <clipPath id="z2tf055kda">
            <path fill="#fff" transform="translate(.004 .001)" d="M0 0h19.998v19.998H0z"/>
        </clipPath>
    </defs>
</svg>
