<svg width="20" height="20" viewBox="0 0 20 20" fill="none" xmlns="http://www.w3.org/2000/svg">
<path d="M3.16016 4.16017C3.62116 3.62017 4.14616 3.13917 4.72216 2.72217" stroke="#294122" stroke-width="1.5" stroke-linecap="round" stroke-linejoin="round"/>
<path d="M14.9989 17.4819C13.5689 18.4399 11.8499 18.9999 9.99891 18.9999C9.08691 18.9999 8.20791 18.8619 7.37891 18.6099" stroke="#294122" stroke-width="1.5" stroke-linecap="round" stroke-linejoin="round"/>
<path d="M4.34944 17C3.06844 15.965 2.08444 14.583 1.52344 13" stroke="#294122" stroke-width="1.5" stroke-linecap="round" stroke-linejoin="round"/>
<path d="M1.52322 7C1.19022 7.94 1.00022 8.946 1.00022 10" stroke="#294122" stroke-width="1.5" stroke-linecap="round" stroke-linejoin="round"/>
<path d="M17.463 15C18.427 13.569 19 11.855 19 10C19 5.029 14.971 1 10 1" stroke="#294122" stroke-width="1.5" stroke-linecap="round" stroke-linejoin="round"/>
<path fill-rule="evenodd" clip-rule="evenodd" d="M9.20652 7.11517L12.9005 9.30017C13.4325 9.61517 13.4325 10.3852 12.9005 10.7002L9.20552 12.8852C8.66352 13.2062 7.97852 12.8152 7.97852 12.1852V7.81517C7.97852 7.18517 8.66452 6.79417 9.20652 7.11517V7.11517Z" stroke="#294122" stroke-width="1.5" stroke-linecap="round" stroke-linejoin="round"/>
</svg>
