<svg width="25" height="24" viewBox="0 0 25 24" fill="none" xmlns="http://www.w3.org/2000/svg">
<path d="M15.501 13.757C16.462 13.438 17.447 13.235 18.501 13.117" stroke="#1D2939" stroke-width="1.5" stroke-linecap="round" stroke-linejoin="round"/>
<path d="M6.50098 13.118C7.55498 13.235 8.53998 13.439 9.50098 13.758" stroke="#1D2939" stroke-width="1.5" stroke-linecap="round" stroke-linejoin="round"/>
<path d="M18.501 9.11799C17.447 9.23499 16.462 9.43899 15.501 9.75799" stroke="#1D2939" stroke-width="1.5" stroke-linecap="round" stroke-linejoin="round"/>
<path d="M9.50098 9.75701C8.53998 9.43801 7.55498 9.23501 6.50098 9.11701" stroke="#1D2939" stroke-width="1.5" stroke-linecap="round" stroke-linejoin="round"/>
<path fill-rule="evenodd" clip-rule="evenodd" d="M12.501 6.13102C9.90698 4.67802 7.58898 4.10002 4.51798 4.00102C3.95998 3.98202 3.50098 4.44202 3.50098 5.00102V16.854C3.50098 17.395 3.93398 17.844 4.47498 17.852C7.56698 17.898 9.89498 18.468 12.501 20C15.107 18.468 17.435 17.898 20.527 17.852C21.068 17.844 21.501 17.395 21.501 16.853V5.00002C21.501 4.44102 21.042 3.98202 20.484 4.00002C17.413 4.10002 15.095 4.67802 12.501 6.13102Z" stroke="#1D2939" stroke-width="1.5" stroke-linecap="round" stroke-linejoin="round"/>
<path d="M12.501 6.12988V19.9999" stroke="#1D2939" stroke-width="1.5" stroke-linecap="round" stroke-linejoin="round"/>
</svg>
