<svg width="20" height="20" viewBox="0 0 20 20" fill="none" xmlns="http://www.w3.org/2000/svg">
<path d="M20 10C20 12.6522 18.9464 15.1957 17.0711 17.0711C15.1957 18.9464 12.6522 20 10 20C7.34784 20 4.8043 18.9464 2.92893 17.0711C1.05357 15.1957 0 12.6522 0 10C0 7.34784 1.05357 4.8043 2.92893 2.92893C4.8043 1.05357 7.34784 0 10 0C12.6522 0 15.1957 1.05357 17.0711 2.92893C18.9464 4.8043 20 7.34784 20 10ZM6.3 8.17C5.25 8.63 4.17 9.1 3.18 9.65C2.67 10.03 3.35 10.3 3.99 10.55C4.1712 10.6134 4.35123 10.6801 4.53 10.75C5.25 10.98 6.05 11.23 6.74 10.85C7.87311 10.1712 8.97429 9.44039 10.04 8.66L11.1 7.92L11.15 7.88C11.45 7.68 12.14 7.24 11.88 7.85C11.29 8.51 10.65 9.09 10.01 9.67C9.58 10.07 9.15 10.45 8.73 10.87C8.36 11.17 7.98 11.78 8.39 12.2C9.34 12.87 10.3 13.52 11.26 14.17L12.21 14.81C12.74 15.24 13.56 14.89 13.68 14.23L13.84 13.31C14.13 11.61 14.41 9.92 14.67 8.22L14.78 7.42C14.88 6.78 14.97 6.13 15 5.48C14.92 4.84 14.14 4.98 13.7 5.12C11.2133 6.08746 8.74618 7.10433 6.3 8.17Z" fill="#344054"/>
</svg>
