<svg width="24" height="24" viewBox="0 0 24 24" fill="none" xmlns="http://www.w3.org/2000/svg">
<g clip-path="url(#clip0_5072_105080)">
<path d="M10.4994 19.5H6.74938C6.00497 19.4991 5.26926 19.3399 4.59108 19.0329C3.9129 18.726 3.30774 18.2783 2.81578 17.7196C2.32381 17.1609 1.95628 16.504 1.73756 15.7925C1.51885 15.0809 1.45396 14.331 1.5472 13.5924C1.64044 12.8539 1.88968 12.1436 2.27838 11.5087C2.66707 10.8738 3.18634 10.3289 3.80172 9.91001C4.4171 9.49113 5.11452 9.20791 5.84771 9.07914C6.58091 8.95037 7.3331 8.979 8.05438 9.16312" stroke="#1D2939" stroke-width="1.5" stroke-linecap="round" stroke-linejoin="round"/>
<path d="M11.25 15L14.25 12L17.25 15" stroke="#1D2939" stroke-width="1.5" stroke-linecap="round" stroke-linejoin="round"/>
<path d="M14.25 19.5V12" stroke="#1D2939" stroke-width="1.5" stroke-linecap="round" stroke-linejoin="round"/>
<path d="M7.5 11.9982C7.50032 10.6461 7.86615 9.31927 8.55877 8.15805C9.2514 6.99683 10.2451 6.04444 11.4346 5.40167C12.6242 4.7589 13.9653 4.44966 15.3162 4.50667C16.6671 4.56368 17.9775 4.98483 19.1087 5.72553C20.2398 6.46624 21.1497 7.49896 21.742 8.71442C22.3344 9.92987 22.5871 11.2828 22.4735 12.6302C22.3599 13.9775 21.8842 15.269 21.0967 16.3681C20.3092 17.4672 19.2392 18.333 18 18.8739" stroke="#1D2939" stroke-width="1.5" stroke-linecap="round" stroke-linejoin="round"/>
</g>
<defs>
<clipPath id="clip0_5072_105080">
<rect width="24" height="24" fill="white"/>
</clipPath>
</defs>
</svg>
